<?xml version="1.0" standalone="no"?>
<!DOCTYPE svg PUBLIC "-//W3C//DTD SVG 1.1//EN" "http://www.w3.org/Graphics/SVG/1.1/DTD/svg11.dtd" >
<!--
2013-9-30: Created.
-->
<svg>
<metadata>
Created by iconfont
</metadata>
<defs>

<font id="iconfont" horiz-adv-x="1024" >
  <font-face
    font-family="iconfont"
    font-weight="500"
    font-stretch="normal"
    units-per-em="1024"
    ascent="896"
    descent="-128"
  />
    <missing-glyph />
    
    <glyph glyph-name="close" unicode="&#58897;" d="M725.881229 458.199045l-38.109969 38.109969c-7.018857 7.009647-18.394952 7.009647-25.413809 0L511.805572 345.759183 366.882901 490.682877c-7.045463 7.048533-18.466584 7.048533-25.50693 0l-38.263465-38.266535c-7.043417-7.051603-7.043417-18.454304 0-25.50693l144.92267-144.920624L306.637796 140.59243c-7.015787-7.015787-7.015787-18.391882 0-25.40767l38.113039-38.125319c7.015787-7.009647 18.394952-7.009647 25.40767 0l141.40352 141.404544 148.665925-148.662855c7.045463-7.060813 18.466584-7.060813 25.51 0l38.263465 38.251186c7.045463 7.054673 7.045463 18.469654 0 25.51L575.331397 282.233358l150.550855 150.551878C732.898039 439.810233 732.898039 451.197584 725.881229 458.199045zM513.363044 747.109084c-248.068865 0-449.167976-201.098087-449.167976-449.167976s201.098087-449.167976 449.167976-449.167976 449.167976 201.098087 449.167976 449.167976S761.431909 747.109084 513.363044 747.109084zM509.569648-81.103788c-211.435527 0-382.838292 171.402765-382.838292 382.838292S298.133098 684.573819 509.569648 684.573819 892.407939 513.171054 892.407939 301.735527 721.005174-81.103788 509.569648-81.103788z"  horiz-adv-x="1024" />

    
    <glyph glyph-name="zichan4" unicode="&#58889;" d="M956.545 535.148c-29.995-44.004-120.974-80.533-242.629-100.004l0-63.526c150.071 23.984 253.571 73.895 253.571 131.748C967.488 514.281 963.523 524.898 956.545 535.148zM713.916 121.282l0-63.54c150.071 23.996 253.571 73.895 253.571 131.747 0 10.93-3.965 21.545-10.942 31.796C926.55 177.269 835.572 140.739 713.916 121.282zM956.545 377.709c-29.995-44.004-120.974-80.521-242.629-100.005l0-63.514c150.071 23.984 253.571 73.882 253.571 131.749C967.488 356.854 963.523 367.47 956.545 377.709zM513.44 514.281c250.753 0 454.048 81.158 454.048 181.268 0 100.108-203.294 181.266-454.048 181.266-250.755 0-454.049-81.158-454.049-181.266C59.391 595.439 262.685 514.281 513.44 514.281zM956.546 67.327C911.629 1.44 730.453-47.895 513.44-47.895c-217.016 0-398.19 49.336-443.106 115.222-6.977-10.251-10.941-20.853-10.941-31.781 0-81.186 203.294-147.006 454.049-147.006 250.753 0 454.048 65.82 454.048 147.006C967.489 46.475 963.524 57.076 956.546 67.327zM312.961 214.19l0 63.514c-121.666 19.483-212.633 56.002-242.629 100.005-6.977-10.239-10.941-20.855-10.941-31.77C59.391 288.072 162.891 238.175 312.961 214.19zM312.961 57.742l0 63.54c-121.666 19.459-212.633 55.986-242.629 100.004-6.977-10.252-10.941-20.867-10.941-31.796C59.391 131.637 162.891 81.738 312.961 57.742zM312.961 371.618l0 63.526c-121.666 19.471-212.633 56.001-242.629 100.004-6.977-10.25-10.941-20.866-10.941-31.783C59.391 445.512 162.891 395.603 312.961 371.618zM618.523 463.827l-69.688-128.402c-18.584-34.797-29.951-57.927-34.101-69.39l-1.187 0c-12.261 27.874-46.855 93.803-103.79 197.792l-65.535 0 121.877-209.356-99.934 0 0-46.261 117.133 0 0-63.757L366.167 144.453l0-46.852 117.133 0 0-92.817 58.122 0 0 92.817 112.98 0 0 46.852-112.98 0L541.422 208.21l112.981 0 0 46.261-96.968 0L680.5 463.827 618.523 463.827z"  horiz-adv-x="1024" />

    
    <glyph glyph-name="zichan" unicode="&#58992;" d="M660.205437 412.074406c-16.210193 15.32708-30.816866 29.212322-43.817971 41.61377l-33.616632 30.969339c-8.841366 8.251941-14.163581 13.285584-15.926738 15.047718-16.526395 15.331173-35.095309 22.570042-55.743582 21.691021-20.653389-0.884137-38.343283-8.120958-53.101405-21.691021-2.362814-2.358721-8.123005-7.803733-17.252943-16.367783-9.15859-8.558933-20.48966-19.043728-34.086329-31.411407-13.568017-12.401448-28.611641-26.095331-45.13906-41.143049-16.527418-15.042601-33.04972-30.248931-49.577139-45.574988-39.533388-35.979446-83.47518-76.114538-131.856074-120.368438l0-176.145789c0-14.163581 5.003967-25.090445 15.047718-32.737612 10.038634-7.679913 23.607674-11.487635 40.695864-11.487635l161.981185 0 223.927025 0 167.269631 0c16.526395 0.595564 29.653367 5.882987 39.379892 15.926738 9.725502 10.042727 14.605649 21.531386 14.605649 34.499745L842.99453 243.041618c-48.981574 45.422516-93.235474 86.434581-132.769886 123.014708C693.096545 381.383406 676.41563 396.743232 660.205437 412.074406L660.205437 412.074406zM614.092189 182.22653c6.137791-0.470721 10.955516-2.828418 14.480806-7.05058 3.52529-4.245697 5.538133-9.284457 6.008854-15.201214-0.470721-6.138814-2.483564-11.239995-6.008854-15.360849-3.52529-4.124947-8.343015-6.421246-14.480806-6.891967l-67.832921 0.345877 0-37.459147c-0.946558-20.018939-11.896958-30.026874-32.862455-30.026874-10.355859 0-18.443048 2.487657-24.206308 7.429203-5.759167 4.938476-8.904811 12.493545-9.346879 22.598694l0 36.733623-68.178799 0c-6.358825 0.470721-11.238972 3.118014-14.669094 7.93574-3.399423 4.812609-5.479805 10.162454-6.17156 16.080234 0.725524 5.888104 2.771113 10.705829 6.17156 14.480806 3.40147 3.780093 8.309246 5.888104 14.669094 6.359848l68.178799 0 0 22.285562-68.178799 0.345877c-6.358825 0.470721-11.238972 2.708692-14.669094 6.704702-3.399423 3.996011-5.479805 9.063423-6.17156 15.202237 0.725524 5.888104 2.771113 10.705829 6.17156 14.480806 3.40147 3.774977 8.309246 5.882987 14.669094 6.358825l50.863435 0-47.338145 83.380012c-2.362814 2.834558-4.595668 6.42227-6.704702 10.768251-2.109034 4.341888-3.054569 9.125845-2.834558 14.3181 1.163499 6.579859 3.526313 11.963473 7.051603 16.08535 3.52529 4.124947 10.133801 6.767124 19.796882 7.934716 5.668093-0.470721 10.700713-2.426259 15.20633-5.826705 4.466732-3.394307 8.117888-7.113001 10.951423-11.109012l53.703109-98.206696 58.985416 98.93222c2.834558 3.996011 6.484691 7.521301 10.955516 10.604522 4.466732 3.055592 9.53926 4.942569 15.202237 5.668093 3.52529-0.221034 6.767124-0.691755 9.69685-1.417279 2.925632-0.725524 5.538133-1.886977 7.772011-3.52529 2.237971-1.63729 4.124947-3.996011 5.66707-7.05058 1.512447-3.055592 2.64627-7.051603 3.366677-12.022825 0-6.833639-2.358721-13.31833-7.05058-19.423375l-54.768371-89.01843 51.938929 0c6.132674-0.470721 10.9504-2.579755 14.476713-6.354731 3.52529-3.780093 5.542226-8.596795 6.012947-14.480806-0.470721-6.138814-2.550079-11.302417-6.17156-15.553231-3.650133-4.245697-8.53028-6.574742-14.669094-7.05058l-67.487044-0.345877 0-21.562085 67.804269 0L614.092189 182.22653zM614.092189 182.22653M936.791799 371.373425l-22.12695 22.12695c-11.205203 11.206226-25.085328 24.6494-41.580001 40.259936-16.493649 15.614629-34.658358 33.178657-54.42147 52.66036-19.769252 19.484773-39.975457 39.096437-60.623729 58.865689-20.653389 19.764136-41.017182 39.374776-61.064774 58.860573-20.052708 19.484773-38.2123 37.016055-54.42761 52.66036-16.238846 15.643282-29.931706 28.927843-41.137932 39.816844-11.205203 10.92584-18.60166 17.847483-22.12695 20.806885-18.289552 17.688871-40.417525 26.411533-66.38699 26.094308-25.969465-0.282433-50.143027-11.363815-72.583109-33.17354-2.963495-2.958378-13.444197-12.842493-31.416524-29.653367-18.006096-16.805758-39.533388-37.017078-64.624856-60.623729-25.085328-23.606651-52.217269-48.976458-81.429591-76.112492-29.207206-27.132964-56.497759-52.502771-81.871659-76.109422-25.369807-23.606651-47.213301-43.975561-65.502853-61.065797-18.286482-17.122983-29.207206-27.449165-32.733519-30.974455-9.442046-8.843412-14.447037-20.806885-15.047718-35.850509-0.599657-15.047718 5.003967-27.89021 16.810874-38.495756 10.605545-9.448186 23.289426-13.885242 38.053688-13.285584 14.764262 0.596588 26.566052 4.439102 35.412534 11.488659 2.958378 2.358721 11.647271 10.16757 26.122961 23.448038 14.447037 13.285584 31.699979 29.337165 51.78134 48.227398 20.052708 18.885116 41.897226 39.249933 65.503876 61.065797 23.606651 21.844517 46.01808 42.775222 67.26601 62.823837 21.24793 20.051685 39.975457 37.616736 56.219419 52.664454 16.238846 15.042601 27.290553 25.211195 33.17354 30.532387 17.689894 15.926738 35.69599 24.201192 53.985542 24.768103 18.284435 0.601704 36.887119-7.679913 55.743582-24.768103 4.125971-3.52529 13.880125-12.685927 29.212322-27.449165 15.32708-14.764262 33.616632-32.136931 54.864562-52.223409 21.242813-20.081361 43.812855-41.455157 67.709101-64.177672 23.889083-22.728654 46.300512-43.976584 67.26601-63.74072 20.930705-19.769252 38.932708-36.733623 53.980425-50.903344 15.047718-14.163581 24.047696-22.410406 27.007097-24.768103 8.846482-7.679913 20.648272-11.805884 35.411511-12.401448 14.760169-0.599657 27.728528 4.119831 38.937824 14.163581 10.039657 9.44307 14.760169 21.24486 14.164604 35.412534C955.648262 346.570529 949.164594 359.568565 936.791799 371.373425L936.791799 371.373425zM936.791799 371.373425"  horiz-adv-x="1024" />

    
    <glyph glyph-name="zichan1" unicode="&#58999;" d="M386.850133 606.242133 631.466667 606.242133c0 0 18.4832 54.050133 133.6832 139.383467-22.050133 11.383467-53.777067-6.212267-66.850133 4.266667-13.994667 11.229867-11.383467 51.2-45.5168 55.466667s-69.6832-42.666667-69.6832-42.666667S551.8336 734.242133 537.6 778.325333s-66.850133 48.349867-83.9168 48.349867-59.374933-12.8-66.850133-67.208533c-3.208533-17.066667-21.333333-23.466667-36.266667-14.933333s-35.191467 14.933333-66.133333 11.741867C320.7168 716.458667 412.450133 628.992 386.850133 606.242133zM851.9168 89.258667c0 0 1.416533 200.533333 0 214.749867-4.983467 102.4-209.783467 238.933333-209.783467 238.933333L391.1168 542.941867c-90.3168-51.2-202.666667-164.266667-214.749867-241.066667-1.058133-3.9936-8.533333-169.250133-11.383467-225.416533s-39.816533-108.8-39.816533-108.8 92.450133-66.133333 396.0832-68.266667 347.016533 52.616533 377.6 70.4C857.6-31.624533 851.9168 89.258667 851.9168 89.258667zM636.808533 125.781333c-4.113067-26.453333-18.824533-84.2752-98.491733-90.043733l0-50.653867-56.285867 0L482.030933 35.328c-33.6384 4.727467-64.631467 13.431467-96.494933 24.1152l16.878933 66.133333c25.258667-9.864533 58.538667-20.411733 87.842133-23.808 39.748267-4.625067 66.525867 3.549867 69.0176 32.3584 5.6832 50.4832-171.383467 59.374933-169.710933 150.459733-2.4064 66.9184 46.114133 96.068267 94.481067 100.096l0 52.650667 56.285867 0 0-50.244267c31.965867-0.392533 57.258667-7.287467 81.902933-18.056533l-15.598933-62.327467c-24.763733 9.3184-50.090667 18.0736-80.384 18.0736-19.626667 0-60.8256-0.068267-62.242133-27.0848 0-46.574933 77.943467-48.981333 103.816533-59.972267 18.858667-8.021333 31.982933-15.854933 45.4144-28.9792C636.689067 185.838933 641.553067 156.330667 636.808533 125.781333z"  horiz-adv-x="1024" />

    
    <glyph glyph-name="jiaoyi" unicode="&#58939;" d="M642.3 410.4c12.4 0 24.8 12.4 24.8 31s-6.2 31-24.8 31h-80.7l93.1 80.7c12.4 12.4 12.4 31 0 43.4-12.4 12.4-31 12.4-43.4 0l-99.3-93-105.5 86.9c-12.4 12.4-31 12.4-43.4 0-12.4-12.4-12.4-31 0-43.4l93.1-74.5h-80.7c-12.4 0-24.8-18.6-24.8-31 0-12.4 12.4-31 24.8-31H481v-62.1H375.4c-12.4 0-24.8-18.6-24.8-31 0-12.4 12.4-31 24.8-31H481v-99.3c0-12.4 12.4-24.8 31-24.8 12.4 0 31 12.4 31 24.8v99.3h105.5c12.4 0 24.8 18.6 24.8 31 0 12.4-12.4 31-31 31H543v62.1h99.3v-0.1zM513.5-61c-26.2 0-52.4 2.4-78.4 7.2-13.5 2.5-22.5 15.4-20 29 2.5 13.5 15.4 22.5 29 20 44.3-8.2 89.3-8.5 133.5-0.9 45.6 7.8 89.2 23.8 129.5 47.5 0.1 0 0.1 0.1 0.2 0.1 46.6 26.8 86.4 61.8 118.4 104.1 30.9 40.9 53.3 86.8 66.6 136.5 13.2 49.5 16.7 100.3 10.4 150.9-6.6 52.3-23.5 102.1-50.1 148-25.2 43.2-55.7 79-93.2 109.4-10.7 8.7-12.3 24.3-3.7 35.1 8.7 10.7 24.3 12.3 35.1 3.7 42.2-34.3 76.6-74.5 104.9-123.1 30.1-51.8 49.1-107.9 56.5-166.9 7.2-56.9 3.2-114.2-11.7-169.9-15.1-56-40.4-107.7-75.2-153.8-36.1-47.7-80.8-87.1-133.1-117.2C686.6-28 637.5-46 586-54.8c-24-4.1-48.3-6.2-72.5-6.2zM222.4 56.3c-6 0-12.2 2.2-17 6.7-32.8 30.5-57.9 63.1-77.2 99.6-30 51.6-48.9 107.6-56.3 166.4-7.2 57-3.2 114.2 11.7 169.9 14.9 55.9 40.2 107.6 75 153.7 36.1 47.7 80.9 87.2 133.3 117.3 73.4 42.4 157.8 62.7 244.2 58.6 13.7-0.7 24.3-12.4 23.7-26.1-0.7-13.7-12.4-24.3-26.1-23.7-76.7 3.7-151.8-14.2-216.9-51.9-46.6-26.8-86.4-61.9-118.4-104.2-30.9-40.9-53.3-86.8-66.6-136.5-13.2-49.5-16.7-100.3-10.4-150.9 6.6-52.3 23.5-102.1 50.1-148 0.2-0.3 0.3-0.6 0.5-0.9 16.6-31.6 38.7-60 67.4-86.8 10.1-9.4 10.6-25.1 1.2-35.2-4.9-5.3-11.6-8-18.2-8zM513.5-66c-26.4 0-53.1 2.4-79.3 7.3-7.9 1.4-14.7 5.8-19.2 12.4-4.5 6.6-6.2 14.5-4.8 22.4 1.4 7.9 5.8 14.7 12.4 19.2s14.5 6.2 22.4 4.8c43.8-8.1 88.2-8.4 131.8-0.9 44.9 7.7 88 23.5 127.8 46.9l0.3 0.2c45.9 26.4 85.3 61 116.9 102.8 30.5 40.3 52.7 85.7 65.8 134.7 13.1 48.9 16.5 99 10.3 149-6.4 51.6-23.2 100.8-49.5 146.2-24.9 42.7-55 78.1-92.1 108-12.8 10.4-14.8 29.2-4.4 42s29.2 14.8 42 4.4c42.7-34.6 77.5-75.3 106.1-124.5 30.4-52.4 49.7-109.1 57.1-168.8 7.3-57.6 3.2-115.4-11.8-171.8-15.1-56.5-40.6-108.8-75.9-155.4-36.5-48.2-81.7-88.1-134.6-118.5-46.1-27-95.8-45.2-147.9-54.1-24.3-4.2-49-6.3-73.4-6.3z m-74 56.6c-4 0-7.9-1.2-11.3-3.5-4.3-3-7.4-7.6-8.3-12.8-1-5.2 0.2-10.5 3.2-14.9 3-4.3 7.6-7.4 12.8-8.3 25.6-4.7 51.7-7.1 77.5-7.1 23.9 0 48.1 2 71.7 6 50.9 8.7 99.6 26.5 144.6 52.9 51.7 29.8 96 68.8 131.7 115.9 34.5 45.6 59.4 96.6 74.2 152 14.7 55.1 18.6 111.7 11.6 168-7.4 58.4-26.1 113.9-55.8 165.1-28 48.1-62 87.9-103.8 121.6-8.6 7-21.1 5.5-28-2.9-7-8.6-5.5-21.1 2.9-28 38-30.7 68.8-67 94.4-110.8 27-46.6 44.1-96.9 50.8-150 6.4-51.2 2.9-102.6-10.5-152.8-13.4-50.3-36.2-96.8-67.4-138.2C797.3 100 757 64.4 710 37.4l-0.1-0.1c-40.9-24-85.1-40.2-131.2-48.1-44.8-7.7-90.3-7.4-135.2 0.9-1.5 0.4-2.8 0.5-4 0.5z m-217.1 60.7c-7.6 0-14.8 2.8-20.4 8.1-33.1 30.9-58.7 63.9-78.2 100.8C93.6 212.4 74.4 269 67 328.3c-7.3 57.6-3.2 115.4 11.8 171.8 15.1 56.5 40.6 108.8 75.9 155.4 36.5 48.3 81.8 88.1 134.7 118.6 74.3 43 159.6 63.5 246.9 59.3 16.4-0.8 29.2-14.8 28.4-31.3-0.8-15.9-14-28.4-29.8-28.4h-1.5c-75.8 3.7-149.9-14-214.2-51.3-46-26.5-85.4-61.1-117-102.9-30.5-40.3-52.7-85.7-65.8-134.7-13.1-48.9-16.5-99-10.3-149 6.4-51.6 23.2-100.8 49.5-146.2 0.2-0.4 0.4-0.7 0.6-1.1 16.3-31.1 38.1-59.1 66.4-85.5 5.8-5.4 9.2-12.8 9.5-20.9 0.3-8-2.6-15.6-8.1-21.5s-13.4-9.3-21.6-9.3zM513.7 824c-77.6 0-153.1-20.1-219.4-58.5-51.8-29.8-96.1-68.8-131.8-116-34.5-45.6-59.4-96.6-74.2-152C73.6 442.4 69.8 386 76.8 329.7c7.3-58.1 26-113.5 55.6-164.6l0.1-0.2c18.9-36 43.9-68 76.2-98.3 3.7-3.4 8.6-5.3 13.6-5.3 5.5 0 10.8 2.2 14.6 6.3 3.6 3.9 5.5 9 5.3 14.3-0.2 5.3-2.4 10.3-6.3 13.9-29.1 27.2-51.5 56-68.4 88.1-0.1 0.2-0.3 0.5-0.4 0.7-27 46.6-44.1 96.9-50.8 150-6.4 51.2-2.9 102.6 10.5 152.8 13.4 50.3 36.2 96.8 67.4 138.2 32.5 42.8 72.8 78.4 119.9 105.5 66 38.2 141.9 56.4 219.6 52.6 11-0.5 20.4 8 20.9 18.9s-8 20.4-18.9 20.9c-7.3 0.3-14.6 0.5-22 0.5z m253.7-72L897 727.2c15.2-3.8 26.7-19 22.9-34.3v-1.9c-3.8-15.2-19-26.7-34.3-22.9L756 693c-15.2 3.8-26.7 19-22.9 34.3v1.9c3.7 15.3 19.1 26.7 34.3 22.8z m124.1-87.6c-2.2 0-4.4 0.3-6.7 0.8L755.2 690c-8.2 2-15.5 7.2-20.4 14.1-5 7.3-6.7 15.5-4.8 23.5v1.9l0.1 0.4c4.4 17.5 21.7 29 37.9 25.1l129.7-24.8c8.2-2 15.5-7.2 20.4-14.1 5-7.3 6.7-15.5 4.8-23.5v-1.9l-0.1-0.4c-2-8.2-7.2-15.5-14.1-20.4-5.3-3.5-11.2-5.5-17.2-5.5z m-134.9 31.5l129.7-24.8c6.3-1.6 13.1-0.2 19 3.8 5.6 3.9 9.9 9.9 11.6 16.5v1.9l0.1 0.4c1.6 6.3 0.2 13.1-3.8 19-3.9 5.7-10.1 10-16.7 11.7l-129.7 24.8c-12.9 3.2-26.8-6-30.6-20.4v-1.9l-0.1-0.4c-1.6-6.3-0.2-13.1 3.8-19 3.9-5.7 9.9-9.9 16.7-11.6z m-639-572.7l129.6-24.8c15.2-3.8 26.7-19 22.9-34.3v-1.9c-3.8-15.2-19-26.7-34.3-22.9l-129.6 24.8c-15.2 3.8-26.7 19-22.9 34.3v1.9c1.8 15.2 18.9 26.7 34.3 22.9z m124-87.6c-2.2 0-4.3 0.3-6.6 0.8l-129.7 24.8c-17.4 4.3-28.9 21.5-25.1 37.6v1.9c1 8 5.7 15.4 13.1 20.5 7.6 5.1 16.6 7 24.8 4.9l129.7-24.8c8.2-2 15.5-7.2 20.4-14.1 5-7.3 6.7-15.5 4.8-23.5v-1.9l-0.1-0.4c-3.9-15.1-17.3-25.8-31.3-25.8zM106.8 67l129.7-24.8c12.9-3.2 26.8 6 30.6 20.4v1.9l0.1 0.4c1.6 6.3 0.2 13.1-3.8 19-3.9 5.7-10.1 10-16.7 11.7L117 120.4c-6.6 1.6-13.9 0.2-20.1-4-5.8-4-9.7-9.9-10.5-16.1v-2.1l-0.1-0.4c-3.4-13.1 6-27.1 20.5-30.8z"  horiz-adv-x="1024" />

    
    <glyph glyph-name="zengjia" unicode="&#58946;" d="M512-127.99488c-282.76736 0-512 229.22752-512 512C0 666.77248 229.23264 896 512 896s512-229.22752 512-511.99488c0-282.77248-229.22752-512-512-512zM512 832c-247.424 0-448-200.576-448-448s200.576-448 448-448 448 200.576 448 448-200.576 448-448 448z m160-480h-128v-128a32 32 0 0 0-64 0v128h-128a32 32 0 1 0 0 64h128v128a32 32 0 0 0 64 0v-128h128a32 32 0 1 0 0-64z"  horiz-adv-x="1024" />

    
    <glyph glyph-name="shouyemoren" unicode="&#58904;" d="M828.6-33.5H665.9c-26.5 0-48 21.5-48 48V146.2c0 6.8-5.5 12.3-12.3 12.3H451.3c-6.8 0-12.3-5.5-12.3-12.3v-131.7c0-26.5-21.5-48-48-48H197.3c-26.5 0-48 21.5-48 48V366.6c0 9.9 8 17.9 17.9 17.9 9.9 0 17.9-8 17.9-17.9v-352.1c0-6.8 5.5-12.3 12.3-12.3H391c6.8 0 12.3 5.5 12.3 12.3V146.2c0 26.5 21.5 48 48 48h154.2c26.5 0 48-21.5 48-48v-131.7c0-6.8 5.5-12.3 12.3-12.3h162.8c6.8 0 12.3 5.5 12.3 12.3V368.3c0 9.9 8 17.9 17.9 17.9 9.9 0 17.9-8 17.9-17.9v-353.8c0-26.5-21.6-48-48.1-48zM875.3 536.9c-9.9 0-17.9 8-17.9 17.9V691.6c0 8.9-7.2 16.1-16.1 16.1h-154c-9.9 0-17.9 8-17.9 17.9 0 9.9 8 17.9 17.9 17.9h154c28.6 0 51.8-23.3 51.8-51.8v-136.9c0.1-9.9-7.9-17.9-17.8-17.9zM940.5 346.4c-4.6 0-9.1 1.7-12.6 5.2L512.4 767.1 98 351.6c-7-7-18.3-7-25.3 0s-7 18.3 0 25.3l415.5 415.5c13.2 13.2 36.2 13.2 49.5 0l415.5-415.5c7-7 7-18.3 0-25.3-3.5-3.5-8.1-5.2-12.7-5.2z"  horiz-adv-x="1024" />

    
    <glyph glyph-name="tuijianhaoyou-" unicode="&#58967;" d="M960.000263 448C960.000263 695.425 759.425263 896 512.000263 896S64.000263 695.425 64.000263 448a446.25 446.25 0 0 1 112.5-296.9125L85.312763-6.837499999999977l147.6-2.3 62.25-118.8625 85.2625 147.6375a450.45 450.45 0 0 1 263.137499 0l85.25-147.6375 62.25 118.8625 147.6 2.3-91.174999 157.925a446.325 446.325 0 0 1 112.5 296.9125zM289.475263-52.5625l-33.6375 83.0875L153.512763 26l53.975 93.4625a448.45 448.45 0 0 1 132.175-85zM106.662763 448c0 223.5 181.825 405.3375 405.325 405.3375S917.325263 671.5125 917.325263 448 735.512763 42.674999999999955 512.000263 42.674999999999955 106.662763 224.48749999999995 106.662763 448z m661.5-417.5l-33.6375-83.0875-50.1875 86.925a448.25 448.25 0 0 1 132.1625 85L870.487763 26z m0 0M570.025263 528.5L512.000263 704 454.000263 528.5l-176.6625-3.75 140.7875-112.25-51.15-177.8375 145 106.1125 145-106.1125-51.1125 177.8375L746.662763 524.75z m0 0"  horiz-adv-x="1024" />

    
    <glyph glyph-name="qianbaoguanli" unicode="&#58963;" d="M860.2 782.1H163.7c-54.9-0.1-99.4-44.6-99.5-99.5v-597c0.1-54.9 44.6-99.4 99.5-99.5h696.5c54.9 0.1 99.4 44.6 99.5 99.5v597c-0.1 54.9-44.6 99.5-99.5 99.5z m49.7-472.6h-398c-27.5 0-49.7 22.3-49.8 49.8V409c0 27.5 22.3 49.7 49.8 49.7h398v-149.2z m-398 199c-54.9-0.1-99.4-44.6-99.5-99.5v-49.8c0.1-54.9 44.6-99.4 99.5-99.5h398v-174.1c0-27.5-22.3-49.7-49.8-49.8H163.7c-27.5 0-49.7 22.3-49.8 49.8v597c0 27.5 22.3 49.7 49.8 49.8h696.5c27.5 0 49.7-22.3 49.8-49.8v-174.1H511.9z m0 0M487.1 384.1c0-17.8 9.5-34.2 24.9-43.1 15.4-8.9 34.4-8.9 49.8 0 15.4 8.9 24.9 25.3 24.9 43.1 0 27.5-22.3 49.8-49.8 49.8-27.6 0-49.8-22.3-49.8-49.8z m0 0"  horiz-adv-x="1024" />

    
    <glyph glyph-name="home" unicode="&#58881;" d="M927.744-70.65599999999995H135.168c-16.384 0-32.768 8.192-43.008 20.48-10.24 14.336-14.336 30.72-10.24 47.104 40.96 208.896 210.944 364.544 415.744 380.928 8.192 2.048 14.336 2.048 24.576 2.048v-20.48c-8.192 0-14.336 0-22.528-2.048-196.608-14.336-360.448-163.84-399.36-364.544-2.048-10.24 0-22.528 8.192-30.72 6.144-8.192 16.384-12.288 26.624-12.288h792.576c10.24 0 20.48 4.096 26.624 12.288 6.144 8.192 10.24 18.432 8.192 30.72-24.576 131.072-104.448 243.712-217.088 307.2-12.288 8.192-26.624 14.336-38.912 20.48l8.192 18.432c14.336-6.144 28.672-14.336 40.96-20.48 118.784-67.584 200.704-184.32 227.328-321.536 4.096-16.384 0-32.768-12.288-47.104-10.24-12.288-26.624-20.48-43.008-20.48z m-399.36 430.08h-4.096v20.48h6.144l-2.048-20.48zM536.576 359.424c-129.024 0-235.52 106.496-235.52 235.52S407.552 830.4639999999999 536.576 830.4639999999999s235.52-106.496 235.52-235.52-106.496-235.52-235.52-235.52z m0 450.56c-118.784 0-215.04-96.256-215.04-215.04s96.256-215.04 215.04-215.04 215.04 96.256 215.04 215.04S655.36 809.984 536.576 809.984z"  horiz-adv-x="1024" />

    
    <glyph glyph-name="zengjia1" unicode="&#58886;" d="M512-128C230.4-128 0 102.4 0 384S230.4 896 512 896s512-230.4 512-512-230.4-512-512-512z m0 972.8C256 844.8 51.2 640 51.2 384S256-76.8 512-76.8 972.8 128 972.8 384 768 844.8 512 844.8zM512 107.52c-15.36 0-25.6 10.24-25.6 25.6V634.88c0 15.36 10.24 25.6 25.6 25.6s25.6-10.24 25.6-25.6V128c0-10.24-10.24-20.48-25.6-20.48zM261.12 358.4c-15.36 0-25.6 10.24-25.6 25.6 0 15.36 10.24 25.6 25.6 25.6H768c15.36 0 25.6-10.24 25.6-25.6 0-15.36-10.24-25.6-25.6-25.6H261.12z"  horiz-adv-x="1024" />

    
    <glyph glyph-name="yue" unicode="&#58934;" d="M929.984 501.312a318.976 318.976 0 0 1-182.656 91.072V700.992h-0.128l0.064 2.368c0 34.24-35.968 63.296-103.936 83.968-60.544 18.432-140.8 28.544-225.792 28.544s-165.184-10.176-225.728-28.608C123.84 766.656 87.872 737.6 87.872 703.36c0-2.432 0.192-4.736 0.576-7.104h-0.128v-78.4a317.824 317.824 0 0 1-32.064-15.36C19.072 581.632 0.32 557.888 0.448 532.032c0-2.368 0.192-4.672 0.64-7.04H0.96V404.48H0.64c0-17.024 7.552-32.832 22.464-46.976 14.912-14.144 37.12-26.24 64.064-36.224v-101.056h-0.256c0-17.472 8.128-33.984 24.256-49.152 53.056-49.472 189.696-77.632 301.76-77.632 7.744 0 15.36 0.128 22.784 0.384 11.456-16.896 24.576-32.768 39.232-47.488a320 320 0 0 1 227.52-94.272c85.952 0 166.72 33.472 227.52 94.272s94.208 141.504 94.208 227.52a319.296 319.296 0 0 1-94.208 227.456zM123.776 595.52v53.824c16.896-11.264 39.68-21.376 68.032-30.016 60.544-18.368 140.736-28.544 225.728-28.544s165.248 10.176 225.792 28.544c28.672 8.704 51.712 18.944 68.608 30.4v-54.4l-9.408 0.192a319.616 319.616 0 0 1-243.392-111.232c-142.336-6.208-285.312 31.488-325.568 69.76-5.888 5.568-9.088 10.752-9.088 14.656h-0.704V593.28a8.064 8.064 0 0 0 0.64 0.192l-0.64 2.048z m78.4 157.888c57.28 17.344 133.76 26.944 215.36 26.944s158.144-9.6 215.488-26.944c58.176-17.664 78.784-38.016 78.784-50.048s-20.608-32.384-78.784-50.048c-57.344-17.408-133.888-27.008-215.488-27.008s-158.144 9.6-215.36 27.008c-58.24 17.6-78.848 38.016-78.848 50.048s20.608 32.384 78.848 50.048zM88.32 579.2v-10.496h0.704c0-14.08 6.72-27.648 20.096-40.32 48.768-46.4 185.792-80 318.016-80.128-106.24-12.8-188.992-3.136-240.064 7.36-59.968 12.352-111.168 33.28-137.024 56.064-10.432 9.152-14.144 16.512-14.144 20.48-0.064 15.36 23.296 33.152 52.416 47.04zM47.552 383.232c-6.592 6.272-10.24 12.16-11.2 18.176v75.84c32-23.68 83.392-43.968 143.616-56.32 45.888-9.472 95.552-14.208 146.944-14.208 27.712 0 55.872 1.344 84.288 4.096-13.44-28.544-22.528-58.944-27.072-90.56A929.152 929.152 0 0 0 182.144 332.8c-65.024 11.776-112.832 29.696-134.592 50.432z m334.016-131.264c-89.152-2.24-172.992 22.4-220.032 48.768a938.688 938.688 0 0 1 219.456-16c-0.064-3.648-0.192-7.232-0.192-10.88 0-7.36 0.32-14.592 0.768-21.888zM135.296 197.12c-8.192 7.616-12.544 14.976-12.992 22.016h0.256v64.512c26.496-19.52 67.008-37.376 113.728-49.728 32.64-8.64 79.424-17.472 133.568-17.472 5.248 0 10.56 0.128 15.936 0.256 5.44-30.656 15.296-60.096 29.248-87.744-111.616-0.576-237.888 29.184-279.744 68.16z m567.232-209.472A286.592 286.592 0 0 0 416.256 273.92a286.656 286.656 0 0 0 286.272 286.272A286.592 286.592 0 0 0 988.864 273.92a286.656 286.656 0 0 0-286.336-286.272z m93.824 466.176l-56.96-104.96c-15.168-28.48-24.512-47.424-27.904-56.768h-0.96c-10.048 22.72-38.4 76.672-84.928 161.728h-53.504l99.584-171.2h-81.664v-37.76h95.808v-52.096h-95.808v-38.272h95.808v-75.904h47.488v75.904H825.6v38.272h-92.288v52.096H825.6v37.76h-79.232l100.544 171.2h-50.56z m0 0"  horiz-adv-x="1024" />

    
    <glyph glyph-name="fanhui" unicode="&#58882;" d="M247.7 384L695.5 831.8l80.8-88.1L416.6 384l359.7-359.7-80.8-88.1z"  horiz-adv-x="1024" />

    
    <glyph glyph-name="haoyou" unicode="&#59022;" d="M630.6 325.3c-27.7 19.4-58 34.8-89.8 45.6 67.4 40.4 108.8 112.6 108.8 190.9 0 123.1-101.4 223.2-225.9 223.2-124.7 0-226.1-100.2-226.1-223.4 0-41.9 11.9-82.8 34.3-118.2 19.1-30 44.9-55.1 75.4-73.1-32.5-11-63.1-26.5-91.3-46.2-30.7-21.5-57.6-47.4-80.3-77.1C88.8 185.3 64 111.8 64 34.5c0-14.4 11.9-26.1 26.5-26.1s26.5 11.7 26.5 26.1c0 80.5 31.8 156.6 89.6 213.8 57.6 57.2 133.9 88.6 214.7 88.7 2.7-0.2 5.4 0 8.1 0.6l2.1 0.4c78.7-1.6 152.6-32.9 208.9-88.7 57.7-57.3 89.5-133.2 89.5-213.8 0-14.4 11.9-26.1 26.5-26.1s26.5 11.7 26.5 26.1c0 77.3-24.8 150.8-71.8 212.6-22.7 29.8-49.8 55.7-80.5 77.2z m-207 65.4c-95.4 0-173.1 76.8-173.1 171.1 0 94.4 77.7 171.1 173.1 171.1 95.4 0 173.1-76.8 173.1-171.1 0.1-94.3-77.6-171.1-173.1-171.1z m480.3-109.8c-34 48.4-79.8 84.8-133.1 105.7 23.6 16.3 43.3 38.1 57.6 63.6 16.6 29.5 25.3 63 25.3 97.2 0 106.6-83.5 193.2-186.1 193.2-14.6 0-26.5-11.7-26.5-26.2 0-14.4 11.9-26.1 26.5-26.1 73.5 0 133.2-63.3 133.2-140.9 0-77.8-59.8-141-133.2-141-14.6 0-26.5-11.7-26.5-26.1v-0.1c0-14.4 11.9-26.1 26.5-26.1 132.1 0 239.6-113.2 239.6-252.4 0-14.4 11.9-26.1 26.5-26.1s26.5 11.7 26.5 26.1c-0.1 64.9-19.5 126.8-56.3 179.2z"  horiz-adv-x="1024" />

    
    <glyph glyph-name="shouyeanquanshezhi" unicode="&#58917;" d="M784.906-74.17h-545.65c-45.481 0-87.256 42.956-87.256 90.004V407.523c0 46.855 41.774 90.004 87.256 90.004h545.65c45.481 0 87.094-43.148 87.094-90.004v-395.558c0-47.047-41.612-86.135-87.094-86.135z m11.282 481.693c0 3.898-7.576 11.665-11.282 11.665h-545.65c-3.867 0-11.442-7.767-11.442-11.665v-391.689c0-3.868 7.575-11.857 11.442-11.857h545.65c7.574 0 11.282 4.091 11.282 7.989V407.523z m-71.914 140.952c-22.757 0-37.907 15.533-37.907 39.057 0 97.962-79.521 176.3-174.382 176.3-94.67 0-174.351-78.338-174.351-176.3v-117.427c0-23.493-15.181-39.25-37.907-39.25-22.564 0-37.714 15.757-37.714 39.25V587.531c0 141.143 113.527 254.639 249.972 254.639 136.477 0 250.195-113.496 250.195-254.639 0-23.523-15.181-39.056-37.906-39.056zM511.985 340.852c68.238 0 121.294-54.815 121.294-125.386 0-70.38-53.057-125.193-121.294-125.193-68.206 0-121.294 54.813-121.294 125.193-0.001 70.57 53.088 125.386 121.294 125.386z m0-172.211c26.656 0 45.481 19.402 45.481 46.825 0 27.391-18.825 47.047-45.481 47.047-26.433 0-45.481-19.656-45.481-47.047-0.001-27.423 19.048-46.825 45.481-46.825z"  horiz-adv-x="1024" />

    
    <glyph glyph-name="lajitong" unicode="&#59070;" d="M741.2-59.9H272.1c-51.8 0-94 44.4-94 98.9V567.2c0 16.6 13.4 30 30 30s30-13.4 30-30V39c0-21.4 15.2-38.9 34-38.9h469.1c18.7 0 34 17.4 34 38.9V567.2c0 16.6 13.4 30 30 30s30-13.4 30-30V39c-0.1-54.5-42.2-98.9-94-98.9zM905.9 636.7H108.6c-16.6 0-30 13.4-30 30s13.4 30 30 30h797.3c16.6 0 30-13.4 30-30s-13.5-30-30-30zM408.4 136.6c-16.6 0-30 13.4-30 30V465.1c0 16.6 13.4 30 30 30s30-13.4 30-30v-298.5c0-16.6-13.4-30-30-30zM606.1 139.1c-16.6 0-30 13.4-30 30V467.7c0 16.6 13.4 30 30 30s30-13.4 30-30v-298.5c0-16.6-13.4-30.1-30-30.1zM685.9 636.7H327.4v92c0 57.7 46.9 104.6 104.6 104.6h149.3c57.7 0 104.6-46.9 104.6-104.6v-92z m-298.5 60h238.5v32c0 24.6-20 44.6-44.6 44.6H432c-24.6 0-44.6-20-44.6-44.6v-32z"  horiz-adv-x="1024" />

    
    <glyph glyph-name="fankui" unicode="&#59010;" d="M1022.721604 512.478601a28.764009 28.764009 0 0 1-57.528018 0v-496.658556a83.096026 83.096026 0 0 0-83.096026-82.456826H141.264528A83.096026 83.096026 0 0 0 57.529301 14.541645V754.735477A83.096026 83.096026 0 0 0 141.264528 837.192303H639.201484a29.403209 29.403209 0 0 1 0 58.806419H141.264528A140.624044 140.624044 0 0 1 0.001283 754.735477v-740.193832a140.624044 140.624044 0 0 1 141.263245-141.263245h740.193832A140.624044 140.624044 0 0 1 1022.721604 14.541645V512.478601zM279.331771 211.415307a43.465614 43.465614 0 0 1 8.309603-41.548013 37.712812 37.712812 0 0 1 27.485608-10.227204 63.92002 63.92002 0 0 1 14.062405 0l157.882449 41.548013 502.411358 497.936957a91.405629 91.405629 0 0 1 0 127.84004l-35.156011 38.352012a93.323229 93.323229 0 0 1-131.675241 0L319.601384 367.380156z m87.570427 109.303234l72.868823-72.229623-97.79763-24.928808z m34.516811 46.661615l392.468924 389.272922 84.374426-83.735226-391.829723-390.551323z m511.360161 458.306544l34.516811-34.516811a34.516811 34.516811 0 0 0 0-49.218416l-28.764009-28.764009-83.735227 83.096026 28.764009 28.764009a35.795211 35.795211 0 0 0 49.857616 0z m0 0"  horiz-adv-x="1026" />

    
    <glyph glyph-name="tuichu" unicode="&#58975;" d="M1024 384c0-17.066667-12.8-34.133333-29.866667-38.4l-238.933333-204.8c-17.066667-17.066667-46.933333-17.066667-64 0-17.066667 17.066667-17.066667 38.4 0 55.466667l170.666667 145.066666H298.666667c-25.6 0-42.666667 17.066667-42.666667 42.666667s17.066667 42.666667 42.666667 42.666667h567.466666l-170.666666 149.333333c-17.066667 17.066667-17.066667 38.4 0 55.466667s46.933333 17.066667 64 0l238.933333-204.8c8.533333-4.266667 17.066667-12.8 21.333333-21.333334 0-8.533333 4.266667-12.8 4.266667-21.333333zM725.333333 810.666667H85.333333v-853.333334h640c25.6 0 42.666667-17.066667 42.666667-42.666666s-17.066667-42.666667-42.666667-42.666667H42.666667c-25.6 0-42.666667 17.066667-42.666667 42.666667V853.333333c0 25.6 17.066667 42.666667 42.666667 42.666667h682.666666c25.6 0 42.666667-17.066667 42.666667-42.666667s-17.066667-42.666667-42.666667-42.666666z"  horiz-adv-x="1024" />

    
    <glyph glyph-name="jilu" unicode="&#58942;" d="M665.6 406.4c0 19.2-16 35.2-35.2 35.2h-358.4c-19.2 0-35.2-16-35.2-35.2 0-19.2 16-35.2 35.2-35.2h358.4c19.2 0 35.2 16 35.2 35.2zM361.6 0h-214.4v768h681.6v-256c0-22.4 19.2-41.6 41.6-41.6 22.4 0 41.6 19.2 41.6 41.6v278.4c0 35.2-28.8 64-64 64H128c-35.2 0-64-28.8-64-64v-809.6c0-35.2 28.8-64 64-64h233.6c22.4 0 41.6 19.2 41.6 41.6s-16 41.6-41.6 41.6zM665.6 566.4c0 19.2-16 35.2-35.2 35.2h-358.4c-19.2 0-35.2-16-35.2-35.2 0-19.2 16-35.2 35.2-35.2h358.4c19.2 0 35.2 16 35.2 35.2zM272 297.6c-19.2 0-35.2-16-35.2-35.2 0-19.2 16-35.2 35.2-35.2h252.8c19.2 0 35.2 16 35.2 35.2 0 19.2-16 35.2-35.2 35.2h-252.8zM460.8 25.6v-89.6h89.6l57.6 57.6-89.6 89.6zM937.6 412.8c-25.6 25.6-64 25.6-89.6 0l-278.4-278.4 89.6-89.6 278.4 278.4c25.6 25.6 25.6 64 0 89.6z"  horiz-adv-x="1024" />

    
    <glyph glyph-name="xiangmufuhua" unicode="&#59019;" d="M1119.596299 370.995458c0 78.716232-91.462405 146.925484-233.737258 188.264424a521.55963 521.55963 0 0 1 17.224559 180.168882 17.224558 17.224558 0 1 1-34.449117-3.961649 485.732548 485.732548 0 0 0-15.846594-166.733726A1117.184861 1117.184861 0 0 1 688.982338 595.431455a1121.835492 1121.835492 0 0 1-104.725315 127.461733 473.330866 473.330866 0 0 0 142.619344 100.419175 17.224558 17.224558 0 1 1-12.746174 32.037679 506.918755 506.918755 0 0 1-155.021026-107.825736c-17.224558 16.018839-33.587889 31.348696-50.29571 44.611607-91.634651 73.204373-173.106812 95.940791-228.914382 63.730866S202.905299 740.978974 220.474348 625.402187c3.272666-21.186207 7.923297-43.405887 13.435156-65.970059C91.462405 518.093188 0 449.71169 0 370.995458S91.29016 224.24222 233.737258 182.731034c-35.310345-143.997309-21.875189-257.162658 46.161817-296.43465a109.548192 109.548192 0 0 1 55.635324-14.124138c63.558621 0 143.308326 44.956098 223.91926 122.46661 80.955425-77.682759 160.70513-122.466611 223.919259-122.46661a109.548192 109.548192 0 0 1 55.635324 14.124138c68.898234 39.271993 81.644407 152.609588 46.161817 296.43465C1028.30614 224.24222 1119.596299 293.140454 1119.596299 370.995458zM844.003364 534.284272a1064.994449 1064.994449 0 0 0-44.783852-122.294365q-18.430278 36.171573-39.960975 74.237847c-14.296384 24.803364-29.281749 48.573255-44.611607 71.654164A1081.35778 1081.35778 0 0 0 844.003364 534.284272z m-114.543314-261.296551c-18.947014-32.726661-38.755257-63.903112-59.252481-93.357107-35.827082-2.928175-72.687637-4.650631-110.409419-4.650631s-74.754584 1.55021-110.40942 4.650631c-20.497225 29.453995-40.305467 60.630446-59.252481 93.357107s-35.827082 65.281077-51.673675 97.835492c15.329857 32.554415 32.38217 65.281077 51.673675 98.007737s38.583011 63.730866 59.252481 93.357107c35.827082 2.928175 72.687637 4.650631 110.40942 4.650631s74.754584-1.55021 110.581665-4.650631c20.497225-29.626241 40.305467-60.802691 59.080235-93.357107s35.999327-65.625568 51.673676-98.179983a1577.9418 1577.9418 0 0 0-51.673676-97.663246z m68.898234 57.013288A1081.530025 1081.530025 0 0 0 844.003364 207.017662a1081.530025 1081.530025 0 0 0-128.667451-23.080908c15.157611 22.908663 29.970732 46.678553 44.43936 71.654163s27.042557 49.778974 39.271994 74.410092zM559.79815 43.384357a1081.35778 1081.35778 0 0 0-84.055846 99.730193q41.166695-2.411438 84.055846-2.411438t84.055845 2.411438a1081.530025 1081.530025 0 0 0-84.055845-99.730193z m-155.021026 140.724642A1081.35778 1081.35778 0 0 0 275.592935 207.017662a1081.702271 1081.702271 0 0 0 44.439361 122.983347c12.401682-24.803364 25.492347-49.778974 39.78873-74.410092s29.798486-48.573255 44.956098-71.309672z m-84.400337 227.708663A1050.698066 1050.698066 0 0 0 275.592935 534.284272a1081.530025 1081.530025 0 0 0 128.495206 23.080909c-15.157611-23.080908-30.142977-46.850799-44.267115-71.654163s-27.214802-49.262237-39.444239-73.893356z m239.421363 189.470143q-42.889151 0-83.8836-2.411438a1081.013288 1081.013288 0 0 0 84.055845 99.730193 1050.698066 1050.698066 0 0 0 84.228091-99.730193q-41.33894 2.411438-84.400336 2.411438z m-305.391422 29.109504c-14.985366 99.902439 0 171.212111 42.716905 195.498738a76.993776 76.993776 0 0 0 39.099748 9.645753c40.649958 0 93.529352-24.286627 151.576114-70.448444 15.846594-12.573928 31.693188-26.870311 47.539782-42.027923A1131.136754 1131.136754 0 0 1 430.613961 595.259209 1117.357107 1117.357107 0 0 1 267.152902 568.733389c-5.167368 20.841716-9.645753 41.683431-12.746174 61.66392zM34.449117 370.995458c0 62.180656 82.677881 118.677208 208.417157 155.021026a1122.007738 1122.007738 0 0 1 58.046762-155.021026 1117.529352 1117.529352 0 0 1-58.391253-155.021026C116.954752 252.318251 34.449117 308.814802 34.449117 370.995458z m262.674516-454.900588c-53.912868 31.004205-61.491674 130.734399-29.970731 258.368376A1117.184861 1117.184861 0 0 1 430.613961 146.731707a1114.084441 1114.084441 0 0 1 105.069807-127.633978c-94.39058-90.945669-184.647267-134.17931-238.560135-103.002859z m525.349033 0c-53.912868-31.176451-144.169554 12.229437-238.215643 103.34735A1113.912195 1113.912195 0 0 1 688.982338 146.731707a1117.357107 1117.357107 0 0 1 163.288814 27.042557c31.693188-126.944996 24.114382-226.675189-29.798486-257.679394z m54.60185 300.051808a1117.184861 1117.184861 0 0 1-58.391253 155.021026 1133.203701 1133.203701 0 0 1 58.046762 155.021026c125.739277-36.171573 208.244912-92.668124 208.244912-155.021026s-82.333389-118.849453-207.900421-155.021026zM826.951051 832.78587m-63.214129 0a63.21413 63.21413 0 1 1 126.428259 0 63.21413 63.21413 0 1 1-126.428259 0Z"  horiz-adv-x="1119" />

    
    <glyph glyph-name="zichan3" unicode="&#58884;" d="M386.85 606.242h244.617s18.483 54.05 133.683 139.384c-22.05 11.383-53.777-6.213-66.85 4.266-13.995 11.23-11.384 51.2-45.517 55.467S583.1 762.692 583.1 762.692s-31.266-28.45-45.5 15.633-66.85 48.35-83.917 48.35-59.375-12.8-66.85-67.208C383.625 742.4 365.5 736 350.566 744.533s-35.191 14.934-66.133 11.742C320.717 716.46 412.45 628.992 386.85 606.242zM851.917 89.26s1.416 200.533 0 214.75c-4.984 102.4-209.784 238.933-209.784 238.933H391.117c-90.317-51.2-202.667-164.267-214.75-241.067-1.058-3.993-8.533-169.25-11.384-225.416s-39.816-108.8-39.816-108.8 92.45-66.134 396.083-68.267 347.017 52.617 377.6 70.4c-41.25-1.417-46.933 119.467-46.933 119.467zM636.809 125.78c-4.114-26.453-18.825-84.275-98.492-90.043v-50.654H482.03v50.244c-33.638 4.727-64.632 13.431-96.495 24.115l16.879 66.134c25.259-9.865 58.539-20.412 87.842-23.808 39.748-4.626 66.526 3.55 69.018 32.358 5.683 50.483-171.384 59.375-169.711 150.46-2.407 66.918 46.114 96.068 94.48 100.096v52.65h56.287v-50.244c31.966-0.392 57.258-7.287 81.903-18.056l-15.6-62.328c-24.763 9.318-50.09 18.074-80.383 18.074-19.627 0-60.826-0.069-62.242-27.085 0-46.575 77.943-48.981 103.816-59.972 18.859-8.022 31.983-15.855 45.414-28.98 23.45-22.903 28.314-52.411 23.57-82.96z"  horiz-adv-x="1024" />

    
    <glyph glyph-name="zichan2" unicode="&#58885;" d="M85.8112 552.8576h853.504v37.4784a92.16 92.16 0 0 1-81.408 91.4432v-43.7248a39.936 39.936 0 0 0-79.7696 0v66.7648C778.24 763.904 730.4192 811.52 671.4368 811.52H352.6656c-58.88 0-106.7008-47.7184-106.7008-106.7008v-65.3312a41.2672 41.2672 0 1 0-82.5344 0V681.984a86.2208 86.2208 0 0 1-77.6192-85.8112v-43.3152z m0-86.528v-305.7664a204.8 204.8 0 0 1 204.8-204.8h443.904a204.8 204.8 0 0 1 204.8 204.8V466.3296H85.8112z m770.6624 301.4656A176.8448 176.8448 0 0 0 1024 591.1552V128A256 256 0 0 0 768-128h-512A256 256 0 0 0 0 128V595.968A172.032 172.032 0 0 0 164.864 768 148.992 148.992 0 0 0 312.32 896h396.5952c75.264 0 137.4208-55.808 147.456-128.2048z m-204.6976-131.072H370.9952a44.3392 44.3392 0 1 0 0 88.576h280.7808a44.3392 44.3392 0 1 0 0-88.576z m-68.9152-252.3136a31.5392 31.5392 0 0 0 46.7968-0.8192 37.2736 37.2736 0 0 0-0.9216-50.176l-78.6432-81.408h73.4208c18.3296 0 33.0752-15.872 33.0752-35.5328 0-19.6608-14.7456-35.5328-33.0752-35.5328h-85.8112v-35.5328h85.8112c18.3296 0 33.0752-15.872 33.0752-35.5328 0-19.6608-14.7456-35.5328-33.0752-35.5328h-85.8112v-40.1408c0-19.6608-14.848-35.6352-33.0752-35.6352-18.2272 0-33.0752 15.9744-33.0752 35.6352v40.1408h-90.112c-18.2272 0-32.9728 15.872-32.9728 35.5328 0 19.6608 14.7456 35.5328 33.0752 35.5328h90.112v35.5328h-90.112c-18.3296 0-33.0752 15.872-33.0752 35.5328 0 19.6608 14.7456 35.5328 33.0752 35.5328h76.4928l-76.4928 81.92a37.2736 37.2736 0 0 0 0 49.9712A31.4368 31.4368 0 0 0 428.1344 384l75.776-81.3056 78.848 81.7152z"  horiz-adv-x="1024" />

    


  </font>
</defs>
</svg>
